<svg width="20" height="20" viewBox="0 0 20 20" fill="none" xmlns="http://www.w3.org/2000/svg">
<path d="M2.85714 1H6.66667C7.69234 1 8.52381 1.83147 8.52381 2.85714V6.66667C8.52381 7.69234 7.69234 8.52381 6.66667 8.52381H2.85714C1.83147 8.52381 1 7.69234 1 6.66667V2.85714C1 1.83147 1.83147 1 2.85714 1ZM2.85714 11.4762H6.66667C7.69234 11.4762 8.52381 12.3077 8.52381 13.3333V17.1429C8.52381 18.1685 7.69234 19 6.66667 19H2.85714C1.83147 19 1 18.1685 1 17.1429V13.3333C1 12.3077 1.83147 11.4762 2.85714 11.4762ZM13.3333 1H17.1429C18.1685 1 19 1.83147 19 2.85714V6.66667C19 7.69234 18.1685 8.52381 17.1429 8.52381H13.3333C12.3077 8.52381 11.4762 7.69234 11.4762 6.66667V2.85714C11.4762 1.83147 12.3077 1 13.3333 1ZM13.3333 11.4762H17.1429C18.1685 11.4762 19 12.3077 19 13.3333V17.1429C19 18.1685 18.1685 19 17.1429 19H13.3333C12.3077 19 11.4762 18.1685 11.4762 17.1429V13.3333C11.4762 12.3077 12.3077 11.4762 13.3333 11.4762Z" stroke="#9239A8" stroke-width="2"/>
</svg>
