<svg width="28" height="28" viewBox="0 0 28 28" fill="none" xmlns="http://www.w3.org/2000/svg">
<rect x="1" y="1" width="26" height="26" rx="9" fill="#9239A8"/>
<rect x="1" y="1" width="26" height="26" rx="9" stroke="#9239A8" stroke-width="2"/>
<path d="M19.6475 9.80751C19.8643 10.0124 19.9908 10.295 19.9992 10.5932C20.0076 10.8914 19.8973 11.1807 19.6925 11.3975L13.3175 18.1475C13.2142 18.2567 13.09 18.3441 12.9524 18.4045C12.8147 18.4649 12.6663 18.4971 12.516 18.4992C12.3657 18.5013 12.2165 18.4733 12.0772 18.4167C11.9379 18.3602 11.8113 18.2763 11.705 18.17L8.33001 14.795C8.13129 14.5818 8.02311 14.2997 8.02825 14.0082C8.03339 13.7168 8.15146 13.4387 8.35758 13.2326C8.5637 13.0265 8.84178 12.9084 9.13323 12.9033C9.42468 12.8981 9.70675 13.0063 9.92001 13.205L12.4775 15.761L18.0575 9.85251C18.2624 9.63576 18.545 9.50926 18.8432 9.50082C19.1414 9.49238 19.4307 9.6027 19.6475 9.80751Z" fill="white"/>
</svg>
