<svg width="28" height="28" viewBox="0 0 28 28" fill="none" xmlns="http://www.w3.org/2000/svg">
<rect x="1" y="1" width="26" height="26" rx="9" fill="white"/>
<rect x="1" y="1" width="26" height="26" rx="9" stroke="#9239A8" stroke-width="2"/>
<path d="M20 14.9999H15V19.9999C15 20.5499 14.55 20.9999 14 20.9999C13.45 20.9999 13 20.5499 13 19.9999V14.9999H8C7.45 14.9999 7 14.5499 7 13.9999C7 13.4499 7.45 12.9999 8 12.9999H13V7.99994C13 7.44994 13.45 6.99994 14 6.99994C14.55 6.99994 15 7.44994 15 7.99994V12.9999H20C20.55 12.9999 21 13.4499 21 13.9999C21 14.5499 20.55 14.9999 20 14.9999Z" fill="#9239A8"/>
</svg>
