<svg width="25" height="25" viewBox="0 0 25 25" fill="none" xmlns="http://www.w3.org/2000/svg">
<path d="M7.63745 4.74219L8.06714 3.45156C8.32654 2.67383 8.82407 1.99743 9.48925 1.51818C10.1544 1.03892 10.9535 0.781107 11.7734 0.78125H13.2265C14.0466 0.781217 14.8458 1.03926 15.511 1.51881C16.1762 1.99837 16.6736 2.6751 16.9328 3.45312L17.3625 4.74219C20.9046 4.88281 22.9171 5.37656 22.9171 7.12812C22.9171 8.59375 22.2656 8.59375 20.964 8.59375H4.03589C2.73433 8.59375 2.08276 8.59375 2.08276 7.12969C2.08276 5.37656 4.09526 4.88281 7.63745 4.74219ZM10.5375 4.275L10.4 4.69063C11.0656 4.68854 11.7656 4.6875 12.5 4.6875C13.2343 4.6875 13.9348 4.68854 14.6015 4.69063L14.4624 4.275C14.3768 4.0154 14.2113 3.78949 13.9897 3.62955C13.768 3.4696 13.5014 3.38379 13.2281 3.38437H11.7734C11.5 3.38379 11.2335 3.4696 11.0118 3.62955C10.7901 3.78949 10.6231 4.0154 10.5375 4.275ZM3.38589 11.1984C3.38589 10.2609 4.03589 9.89531 4.68745 9.89531H20.3125C20.964 9.89531 21.614 10.2625 21.614 11.1984C21.614 21.6141 20.964 24.2188 12.5 24.2188C4.03589 24.2188 3.38589 21.6141 3.38589 11.1984ZM9.89526 13.8016C9.72421 13.8016 9.55483 13.8353 9.39682 13.9008C9.2388 13.9663 9.09525 14.0623 8.97437 14.1833C8.85349 14.3044 8.75765 14.448 8.69233 14.6061C8.62701 14.7642 8.59349 14.9336 8.5937 15.1047V17.7078C8.5937 17.8788 8.62739 18.0482 8.69284 18.2062C8.75829 18.3642 8.85421 18.5078 8.97515 18.6287C9.09608 18.7496 9.23965 18.8456 9.39766 18.911C9.55567 18.9765 9.72502 19.0102 9.89604 19.0102C10.0671 19.0102 10.2364 18.9765 10.3944 18.911C10.5524 18.8456 10.696 18.7496 10.8169 18.6287C10.9379 18.5078 11.0338 18.3642 11.0993 18.2062C11.1647 18.0482 11.1984 17.8788 11.1984 17.7078V15.1047C11.1986 14.9335 11.165 14.764 11.0996 14.6058C11.0342 14.4476 10.9382 14.3038 10.8172 14.1828C10.6961 14.0617 10.5524 13.9658 10.3942 13.9003C10.236 13.8349 10.0664 13.8014 9.89526 13.8016ZM16.4062 15.1047C16.4062 14.7593 16.269 14.428 16.0248 14.1838C15.7805 13.9396 15.4493 13.8023 15.1039 13.8023C14.7585 13.8023 14.4272 13.9396 14.183 14.1838C13.9387 14.428 13.8015 14.7593 13.8015 15.1047V17.7078C13.8015 18.0532 13.9387 18.3845 14.183 18.6287C14.4272 18.8729 14.7585 19.0102 15.1039 19.0102C15.4493 19.0102 15.7805 18.8729 16.0248 18.6287C16.269 18.3845 16.4062 18.0532 16.4062 17.7078V15.1047Z" fill="#EB5757"/>
</svg>
