<svg width="26" height="25" viewBox="0 0 26 25" fill="none" xmlns="http://www.w3.org/2000/svg">
<path d="M6.75009 6.24998C6.75009 5.14491 7.18908 4.0851 7.97048 3.3037C8.75188 2.5223 9.81169 2.08331 10.9168 2.08331H15.0834C16.1885 2.08331 17.2483 2.5223 18.0297 3.3037C18.8111 4.0851 19.2501 5.14491 19.2501 6.24998V8.33331H23.4168C23.568 8.33338 23.7173 8.36637 23.8545 8.42999C23.9917 8.4936 24.1134 8.58632 24.2111 8.70169C24.3088 8.81707 24.3803 8.95234 24.4205 9.09811C24.4607 9.24388 24.4686 9.39665 24.4438 9.54581L22.7959 19.4354C22.6337 20.4079 22.1319 21.2914 21.3797 21.9289C20.6275 22.5663 19.6736 22.9163 18.6876 22.9166H7.31259C6.32644 22.9165 5.3723 22.5666 4.61985 21.9292C3.86741 21.2918 3.36544 20.4081 3.20322 19.4354L1.55634 9.54581C1.53154 9.39665 1.53951 9.24388 1.5797 9.09811C1.61989 8.95234 1.69134 8.81707 1.78907 8.70169C1.88681 8.58632 2.00849 8.4936 2.14566 8.42999C2.28284 8.36637 2.43222 8.33338 2.58342 8.33331H6.75009V6.24998ZM8.83342 8.33331H14.0418C14.318 8.33331 14.583 8.44306 14.7783 8.63841C14.9737 8.83376 15.0834 9.09871 15.0834 9.37498C15.0834 9.65125 14.9737 9.9162 14.7783 10.1115C14.583 10.3069 14.318 10.4166 14.0418 10.4166H3.81259L5.25946 19.0927C5.34053 19.5788 5.59129 20.0204 5.96719 20.3391C6.34309 20.6578 6.81978 20.8329 7.31259 20.8333H18.6876C19.1806 20.8331 19.6575 20.6581 20.0336 20.3394C20.4098 20.0207 20.6607 19.579 20.7418 19.0927L22.1876 10.4166H18.2084C17.9322 10.4166 17.6672 10.3069 17.4719 10.1115C17.2765 9.9162 17.1668 9.65125 17.1668 9.37498V6.24998C17.1668 5.69745 16.9473 5.16754 16.5566 4.77684C16.1659 4.38614 15.636 4.16665 15.0834 4.16665H10.9168C10.3642 4.16665 9.83432 4.38614 9.44362 4.77684C9.05292 5.16754 8.83342 5.69745 8.83342 6.24998V8.33331Z" fill="black"/>
</svg>
