<svg width="40" height="40" viewBox="0 0 40 40" fill="none" xmlns="http://www.w3.org/2000/svg">
<path d="M10 9.99992C10 8.23181 10.7024 6.53612 11.9527 5.28587C13.2029 4.03563 14.8986 3.33325 16.6667 3.33325H23.3334C25.1015 3.33325 26.7972 4.03563 28.0474 5.28587C29.2977 6.53612 30 8.23181 30 9.99992V13.3333H36.6667C36.9086 13.3334 37.1477 13.3861 37.3671 13.4879C37.5866 13.5897 37.7813 13.7381 37.9377 13.9227C38.094 14.1073 38.2084 14.3237 38.2727 14.5569C38.337 14.7902 38.3497 15.0346 38.31 15.2733L35.6734 31.0966C35.4139 32.6527 34.611 34.0663 33.4074 35.0861C32.2038 36.106 30.6776 36.666 29.1 36.6666H10.9C9.32221 36.6664 7.79558 36.1066 6.59166 35.0867C5.38775 34.0668 4.5846 32.6529 4.32505 31.0966L1.69005 15.2733C1.65037 15.0346 1.66313 14.7902 1.72743 14.5569C1.79173 14.3237 1.90604 14.1073 2.06242 13.9227C2.21879 13.7381 2.41348 13.5897 2.63296 13.4879C2.85244 13.3861 3.09145 13.3334 3.33338 13.3333H10V9.99992ZM13.3334 13.3333H21.6667C22.1087 13.3333 22.5327 13.5088 22.8452 13.8214C23.1578 14.134 23.3334 14.5579 23.3334 14.9999C23.3334 15.4419 23.1578 15.8659 22.8452 16.1784C22.5327 16.491 22.1087 16.6666 21.6667 16.6666H5.30005L7.61505 30.5483C7.74475 31.326 8.14597 32.0326 8.7474 32.5425C9.34884 33.0524 10.1116 33.3326 10.9 33.3333H29.1C29.8888 33.333 30.6519 33.0529 31.2537 32.543C31.8555 32.0331 32.257 31.3263 32.3867 30.5483L34.7 16.6666H28.3334C27.8914 16.6666 27.4674 16.491 27.1549 16.1784C26.8423 15.8659 26.6667 15.4419 26.6667 14.9999V9.99992C26.6667 9.11586 26.3155 8.26802 25.6904 7.6429C25.0653 7.01777 24.2174 6.66659 23.3334 6.66659H16.6667C15.7827 6.66659 14.9348 7.01777 14.3097 7.6429C13.6846 8.26802 13.3334 9.11586 13.3334 9.99992V13.3333Z" fill="white"/>
</svg>
